<svg fill="#000000" xmlns="http://www.w3.org/2000/svg"  viewBox="0 0 512 512" width="64px" height="64px"><path d="M 124.41797 27 A 54.411 54.411 0 0 0 70.068359 81.349609 L 70.068359 419.69922 A 56.5 56.5 0 0 0 69.216797 429.51562 C 69.216797 459.21562 92.884609 483.58523 123.09961 484.99023 C 123.25461 484.99723 123.40945 485.00195 123.56445 485.00195 L 380.04102 485.00195 A 40.045 40.045 0 0 0 420.04102 445.00195 L 420.04102 390.11133 A 40.053 40.053 0 0 0 442.7832 354.0293 L 442.7832 67 A 40.045 40.045 0 0 0 402.7832 27 L 124.41797 27 z M 124.41797 47 L 140.66992 47 L 140.66992 374.0293 L 124.13477 374.0293 L 123.90625 374.0293 A 56.234 56.234 0 0 0 90.068359 386.12891 L 90.068359 81.349609 A 34.388 34.388 0 0 1 124.41797 47 z M 160.66992 47 L 402.7832 47 A 20.023 20.023 0 0 1 422.7832 67 L 422.7832 354.0293 A 20.023 20.023 0 0 1 402.7832 374.0293 L 160.66992 374.0293 L 160.66992 47 z M 200.87695 88.746094 A 10 10 0 0 0 190.87695 98.746094 L 190.87695 228.74609 A 10 10 0 0 0 200.87695 238.74609 L 378.63672 238.74609 A 10 10 0 0 0 388.63672 228.74609 L 388.63672 98.746094 A 10 10 0 0 0 378.63672 88.746094 L 200.87695 88.746094 z M 210.87695 108.74609 L 368.63672 108.74609 L 368.63672 218.74609 L 210.87695 218.74609 L 210.87695 108.74609 z M 124.25391 394.0293 L 400.04102 394.0293 L 400.04102 445 A 20.023 20.023 0 0 1 380.04102 465 L 123.8125 465 C 104.3955 463.987 89.216797 448.43967 89.216797 429.51367 C 89.216797 410.09667 104.59891 394.5313 124.25391 394.0293 z"/></svg>