<?xml version="1.0" standalone="no"?>
<!DOCTYPE svg PUBLIC "-//W3C//DTD SVG 20010904//EN"
 "http://www.w3.org/TR/2001/REC-SVG-20010904/DTD/svg10.dtd">
<svg version="1.0" xmlns="http://www.w3.org/2000/svg"
 width="1280.000000pt" height="1158.000000pt" viewBox="0 0 1280.000000 1158.000000"
 preserveAspectRatio="xMidYMid meet">
<metadata>
Created by potrace 1.15, written by Peter Selinger 2001-2017
</metadata>
<g transform="translate(0.000000,1158.000000) scale(0.100000,-0.100000)"
fill="#000000" stroke="none">
<path d="M5937 11569 c-98 -14 -545 -157 -639 -204 -168 -85 -319 -199 -419
-318 -31 -36 -98 -126 -149 -199 -88 -126 -154 -255 -210 -413 -10 -27 -47
-115 -83 -195 -102 -229 -154 -417 -178 -655 -22 -218 12 -456 79 -563 20 -31
27 -188 14 -288 -7 -48 -21 -100 -36 -130 -14 -27 -35 -93 -46 -147 -12 -53
-28 -113 -36 -133 l-15 -35 -60 53 c-104 92 -222 186 -276 220 -164 103 -240
157 -343 244 -63 53 -182 151 -263 216 -82 66 -217 184 -300 262 -84 78 -172
156 -197 173 -25 17 -53 40 -63 51 -28 31 -98 47 -133 31 -47 -23 -55 -51 -47
-167 l6 -104 -69 53 c-116 88 -120 89 -352 89 l-203 0 -49 -102 c-61 -124 -62
-134 -20 -406 32 -204 40 -345 21 -379 -5 -11 -25 -23 -43 -27 -18 -3 -60 -17
-93 -30 -73 -30 -183 -51 -217 -43 -13 4 -71 47 -129 98 -151 132 -156 134
-319 134 -123 0 -140 -2 -184 -24 -95 -47 -247 -213 -296 -323 -11 -25 -26
-75 -34 -112 -28 -137 -134 -213 -377 -272 -96 -23 -119 -33 -147 -60 -25 -25
-32 -41 -32 -69 0 -50 57 -108 120 -124 106 -26 118 -31 123 -52 9 -35 -11
-71 -64 -119 -44 -40 -50 -50 -51 -86 -1 -80 48 -121 134 -111 111 13 228 109
356 292 35 50 93 127 130 171 81 98 140 201 154 269 18 90 66 153 158 210 l44
28 41 -23 c72 -41 114 -80 142 -133 32 -60 74 -91 152 -114 47 -13 69 -14 160
-4 138 16 150 19 178 41 13 10 47 26 74 35 45 15 52 15 73 1 14 -8 29 -30 35
-48 29 -89 78 -452 66 -488 -4 -13 -1 -22 9 -26 37 -14 10 -44 -39 -44 -32 0
-80 -58 -123 -147 -23 -48 -32 -81 -28 -96 3 -12 11 -78 16 -147 14 -165 36
-215 114 -265 31 -20 56 -40 56 -45 0 -5 -12 -17 -26 -27 -94 -66 -102 -86
-54 -126 52 -44 131 -67 228 -67 105 0 125 -10 120 -60 -3 -31 -7 -35 -43 -42
-53 -11 -157 5 -199 31 -67 42 -98 18 -75 -59 13 -42 52 -93 78 -101 22 -8 30
-111 30 -382 1 -409 33 -996 61 -1134 16 -78 23 -436 11 -562 -12 -128 -28
-166 -64 -155 -12 3 -71 39 -132 79 -60 40 -173 105 -250 145 -77 40 -155 82
-174 93 -70 42 -171 40 -233 -4 -18 -13 -38 -19 -51 -16 -12 3 -42 11 -66 17
-25 6 -54 9 -65 7 -17 -2 -15 -6 15 -19 47 -20 58 -38 26 -38 -42 0 -201 86
-253 138 -27 26 -79 90 -117 142 -37 52 -87 123 -111 157 -26 35 -63 72 -88
87 -61 36 -279 97 -369 103 -69 5 -78 4 -98 -16 -26 -26 -27 -67 -2 -80 10 -6
61 -17 113 -26 115 -18 188 -37 253 -65 63 -27 82 -44 107 -97 23 -50 184
-254 236 -301 57 -50 163 -111 242 -138 97 -32 189 -32 300 1 111 33 166 33
216 -2 21 -14 75 -47 119 -74 44 -26 120 -82 169 -124 103 -88 155 -121 209
-130 21 -4 48 -15 60 -25 21 -18 21 -18 4 -74 -11 -32 -26 -60 -38 -66 -25
-14 -157 3 -202 26 -18 10 -96 80 -174 157 l-142 139 -129 -4 c-93 -3 -135 -8
-147 -18 -20 -17 -226 -26 -329 -15 -80 8 -120 33 -162 100 -44 70 -62 87
-223 204 -79 57 -151 118 -162 135 -12 20 -19 50 -19 82 0 40 -6 59 -28 90
-36 49 -145 150 -171 159 -24 7 -57 -8 -71 -35 -13 -24 24 -70 75 -94 32 -15
34 -19 24 -39 -7 -12 -35 -47 -62 -77 -116 -127 -91 -181 86 -186 99 -2 85 4
280 -131 119 -83 192 -158 207 -213 22 -82 93 -105 330 -105 147 0 169 2 200
20 52 30 197 28 262 -4 60 -29 181 -140 214 -198 39 -66 132 -103 259 -103 48
0 85 -16 85 -36 0 -21 -29 -48 -66 -65 -54 -23 -138 -86 -258 -194 -222 -200
-316 -279 -378 -321 -73 -50 -185 -162 -238 -239 -18 -27 -48 -83 -65 -124
-18 -42 -56 -126 -85 -186 -63 -134 -103 -231 -142 -350 -17 -49 -43 -115 -58
-146 -54 -106 -61 -231 -19 -328 10 -24 19 -53 19 -65 0 -54 116 -251 185
-315 53 -49 81 -61 139 -61 57 0 81 -20 165 -138 100 -140 111 -149 206 -163
99 -14 402 -5 496 15 37 8 91 27 120 42 80 40 99 44 279 54 91 6 219 17 285
26 161 21 395 6 395 -25 0 -5 16 -29 37 -53 43 -52 75 -118 139 -298 72 -198
106 -235 255 -266 53 -11 110 -15 204 -12 161 6 209 21 337 112 158 111 164
116 189 157 45 75 52 81 130 100 71 19 140 27 418 48 121 10 126 10 173 -14
50 -25 133 -80 231 -151 32 -24 83 -55 115 -70 31 -14 89 -50 127 -80 39 -29
86 -60 106 -68 20 -8 60 -34 89 -58 93 -75 133 -104 197 -137 34 -19 88 -60
120 -92 55 -57 73 -68 197 -125 l59 -27 56 18 c31 10 84 34 119 55 34 21 78
41 97 44 19 4 35 11 35 17 0 5 20 18 45 29 53 23 126 92 150 143 42 90 312
300 511 398 113 57 217 67 511 51 262 -14 392 -38 436 -80 36 -33 60 -80 82
-155 17 -61 37 -77 90 -77 13 0 37 -12 54 -26 68 -57 240 -88 356 -64 93 19
152 55 256 156 81 79 103 95 150 108 92 25 610 69 844 71 178 1 215 4 242 19
31 16 34 16 72 -4 106 -54 241 -63 386 -25 134 35 164 53 283 169 185 178 197
194 218 273 8 32 24 71 36 87 14 19 23 54 29 108 11 93 25 132 68 181 32 36
62 50 133 62 44 7 124 80 151 137 28 59 24 235 -7 324 -13 38 -29 114 -35 169
-31 270 -34 283 -122 456 -82 161 -119 215 -250 363 -81 92 -128 137 -164 156
-27 15 -56 38 -63 51 -26 47 4 536 36 596 12 21 85 35 260 49 l83 7 33 66 c51
101 67 164 67 271 0 93 -1 96 -47 188 -34 67 -49 110 -52 148 -4 52 -3 55 36
94 50 51 80 52 150 5 69 -47 96 -56 162 -56 44 0 69 7 136 42 45 23 89 39 97
36 10 -4 17 -21 19 -44 l3 -38 60 -5 c52 -4 60 -8 63 -26 4 -31 -91 -132 -153
-161 -108 -50 -204 -22 -321 96 -68 67 -74 71 -117 71 -63 0 -77 -7 -77 -41 0
-20 19 -50 66 -106 36 -43 72 -86 79 -95 24 -30 121 -51 200 -45 139 12 261
70 360 171 81 83 121 150 112 188 -8 29 -20 35 -91 49 -27 5 -55 14 -62 20 -7
6 -20 43 -29 83 -9 39 -19 76 -23 82 -16 23 -58 44 -89 44 -38 0 -53 -25 -53
-85 0 -55 -17 -83 -67 -115 -74 -47 -84 -47 -142 -2 -77 61 -150 87 -246 86
-63 0 -90 -5 -127 -23 -71 -34 -133 -95 -165 -159 -25 -50 -28 -68 -28 -153 0
-81 3 -100 19 -118 29 -32 65 -28 72 9 9 44 30 57 54 35 47 -43 29 -139 -32
-171 -40 -22 -138 -25 -162 -5 -37 31 -39 78 -27 581 7 267 16 703 21 970 9
468 19 609 41 636 6 7 35 18 64 24 75 16 115 45 148 109 30 60 35 112 12 131
-23 19 -41 6 -55 -43 -7 -25 -23 -56 -37 -69 -22 -20 -36 -23 -130 -26 -58 -2
-109 0 -114 5 -14 14 18 51 64 75 23 11 83 34 134 50 168 52 226 140 190 285
-8 32 -18 108 -22 168 -3 61 -11 137 -16 169 -22 126 -77 226 -125 226 -96 0
-292 -186 -379 -360 -68 -135 -77 -200 -50 -376 8 -54 15 -123 15 -152 0 -74
19 -108 100 -180 l69 -62 -5 -302 c-22 -1428 -33 -1724 -104 -2743 -6 -76 -10
-198 -9 -270 1 -116 -2 -138 -26 -210 -34 -102 -75 -166 -135 -210 -50 -37
-413 -208 -518 -244 -34 -11 -111 -28 -170 -37 -59 -8 -150 -26 -202 -40 -81
-20 -115 -24 -230 -21 -127 2 -138 1 -183 -23 -29 -16 -125 -102 -255 -231
-158 -157 -222 -214 -272 -241 -294 -160 -405 -227 -560 -343 -103 -76 -274
-186 -355 -227 -27 -14 -174 -88 -325 -163 -362 -182 -583 -303 -704 -386
-103 -71 -131 -81 -140 -51 -9 29 -26 644 -26 957 0 160 5 405 11 545 5 140
12 874 14 1630 5 1695 25 2490 66 2642 15 59 57 98 179 167 62 35 156 96 209
137 54 40 136 96 182 125 46 29 105 70 131 91 26 21 102 68 169 104 68 36 144
81 170 100 26 19 66 41 89 49 23 8 70 34 104 57 159 107 209 139 311 198 61
35 197 106 303 157 106 52 204 105 219 119 14 13 35 24 46 24 11 0 61 18 111
39 84 37 923 452 1343 665 100 51 210 102 245 114 35 11 113 43 173 70 61 28
139 58 175 67 98 25 116 47 53 64 -55 14 -103 1 -233 -62 -63 -30 -191 -85
-285 -122 -93 -37 -272 -116 -396 -176 -124 -60 -230 -109 -235 -109 -5 0 -45
-23 -89 -51 -44 -29 -114 -66 -155 -84 -41 -18 -109 -49 -150 -70 -41 -21
-111 -53 -154 -71 -44 -18 -109 -53 -145 -78 -80 -53 -167 -97 -240 -121 -80
-26 -682 -332 -791 -401 -52 -34 -124 -76 -159 -94 -36 -18 -117 -67 -180
-110 -64 -42 -177 -112 -251 -155 -74 -43 -207 -124 -295 -180 -88 -56 -198
-123 -245 -150 -131 -75 -277 -174 -304 -206 -25 -29 -46 -86 -46 -124 0 -34
-46 -120 -78 -147 -54 -45 -124 -63 -252 -63 -112 0 -117 1 -190 37 -99 48
-146 96 -165 167 -36 133 -48 164 -77 196 l-30 35 41 45 41 44 47 -41 c61 -52
68 -64 54 -95 -17 -37 -14 -129 5 -147 19 -19 36 -20 52 -4 17 17 15 174 -2
232 -8 26 -32 70 -54 99 -69 91 -260 284 -340 344 -42 32 -198 125 -347 207
-358 197 -401 223 -444 262 -20 18 -66 48 -101 66 -36 19 -141 84 -235 145
-93 61 -205 130 -247 154 -43 23 -78 46 -78 51 0 4 -35 32 -77 62 -43 30 -152
116 -243 192 -189 158 -395 312 -626 471 -88 61 -205 144 -260 185 -55 41
-132 92 -170 113 -81 45 -191 151 -224 215 -13 25 -33 81 -46 125 -12 44 -25
88 -29 98 -11 26 12 21 54 -10 20 -15 97 -82 171 -148 74 -66 176 -154 225
-195 50 -40 173 -144 275 -230 195 -165 314 -256 470 -360 114 -75 209 -144
310 -224 100 -78 222 -160 355 -236 61 -34 148 -88 195 -120 47 -31 204 -130
350 -220 315 -193 550 -348 641 -422 121 -97 370 -332 443 -418 94 -109 164
-214 172 -257 4 -21 0 -48 -10 -73 -21 -52 -21 -169 -1 -196 15 -19 15 -19 35
4 11 13 25 43 31 65 24 88 67 133 49 50 -17 -74 34 -133 102 -118 15 4 44 25
63 48 36 42 115 188 115 212 0 32 422 459 595 603 71 58 156 114 209 136 20 8
75 40 121 70 47 31 165 99 262 152 98 53 207 116 243 139 36 23 130 77 210
120 80 43 177 100 215 125 39 26 183 105 320 176 138 70 293 157 345 193 52
36 156 98 230 139 130 71 515 296 669 390 40 24 109 78 152 119 77 72 180 133
223 133 17 0 18 -6 13 -57 -3 -32 -13 -81 -21 -109 l-16 -50 -152 -77 c-84
-42 -236 -126 -338 -188 -102 -61 -216 -127 -254 -146 -76 -39 -121 -77 -110
-94 16 -27 151 31 360 156 138 83 198 112 279 134 40 11 109 49 174 97 19 13
46 27 60 30 14 3 90 27 168 54 79 26 146 44 149 39 15 -26 -12 -48 -109 -89
-56 -24 -226 -103 -377 -176 -151 -73 -324 -152 -385 -177 -60 -25 -200 -86
-310 -137 -110 -50 -224 -101 -253 -112 -102 -38 -602 -300 -918 -480 -109
-63 -245 -140 -302 -172 -57 -32 -164 -98 -239 -147 -74 -50 -209 -133 -300
-185 -183 -105 -539 -326 -647 -401 -194 -134 28 -60 249 83 129 84 340 210
480 286 60 33 128 73 150 89 22 15 65 43 95 62 30 18 103 70 161 114 73 56
123 86 160 97 31 9 113 54 192 105 91 59 152 92 179 96 27 5 53 19 76 41 20
19 47 37 61 40 65 14 144 51 284 133 186 109 234 133 351 177 50 19 142 62
204 95 63 34 144 71 180 84 37 12 89 36 115 53 27 17 67 34 89 37 22 4 90 31
151 60 62 29 137 65 167 79 30 14 76 37 102 51 26 14 105 47 175 74 70 27 185
74 254 104 192 85 256 94 300 39 24 -31 24 -40 -7 -827 -16 -402 -14 -438 22
-452 9 -3 40 1 68 10 29 9 113 24 188 32 157 17 244 41 312 86 79 53 100 95
163 324 41 153 54 181 87 189 37 9 67 -7 109 -58 46 -55 129 -97 265 -133 81
-21 121 -26 240 -27 l144 -1 29 33 c23 25 29 42 29 75 -1 57 -17 82 -70 110
-26 13 -46 32 -48 43 -2 12 20 45 58 87 93 105 94 107 86 188 -9 84 -31 162
-51 179 -15 13 -17 12 -110 -90 -16 -18 -59 -47 -95 -64 -55 -26 -82 -31 -175
-37 -60 -4 -127 -12 -148 -19 -32 -10 -47 -8 -111 14 -93 33 -171 34 -228 5
-58 -30 -168 -145 -200 -211 -15 -30 -35 -95 -44 -144 -24 -126 -44 -160 -107
-189 -57 -26 -212 -50 -259 -40 -18 4 -34 18 -45 38 -14 28 -15 62 -10 277 4
135 12 297 19 360 19 178 17 263 -8 297 -30 42 -85 64 -176 72 -65 6 -84 11
-92 26 -21 37 -55 65 -79 65 -14 0 -71 -13 -128 -30 -120 -34 -135 -36 -143
-14 -3 9 -6 76 -6 149 0 113 -3 136 -18 155 -16 20 -21 21 -43 10 -13 -7 -58
-43 -99 -80 -216 -193 -615 -460 -986 -658 -143 -77 -264 -147 -460 -266 -184
-111 -610 -336 -639 -336 -19 0 -19 22 0 130 18 104 19 164 2 178 -17 14 -30
5 -54 -38 -20 -35 -21 -35 -83 -32 -35 2 -71 7 -81 13 -38 20 -43 114 -8 155
7 8 35 26 63 39 28 13 107 68 176 122 191 150 215 204 215 473 l-1 155 -48 95
c-27 52 -93 174 -147 271 -161 288 -164 295 -163 419 0 69 8 139 22 202 27
120 30 303 7 392 -24 91 -73 179 -162 292 -111 139 -148 175 -229 220 -73 39
-204 139 -204 154 0 13 -121 101 -168 121 -24 11 -56 19 -71 19 -35 0 -90 36
-162 106 -80 79 -131 91 -509 114 -91 5 -192 15 -225 21 -156 28 -457 37 -588
18z m544 -138 c41 -10 121 -22 179 -26 107 -7 208 -33 293 -76 l41 -22 -52
-19 c-29 -11 -52 -25 -52 -31 0 -20 100 -135 136 -158 42 -25 64 -19 64 18 1
15 14 53 30 83 35 65 38 107 9 145 l-22 27 23 -4 c40 -6 64 -51 70 -131 5 -71
5 -72 35 -76 20 -2 51 8 92 30 61 33 62 33 82 15 28 -25 27 -31 -9 -46 -49
-20 -57 -37 -30 -65 28 -30 77 -45 147 -45 43 0 58 -5 85 -29 18 -16 47 -32
65 -35 33 -7 127 -68 177 -115 15 -14 45 -51 66 -81 21 -30 72 -93 114 -140
93 -105 115 -147 123 -241 7 -85 -3 -86 -43 -6 -51 101 -135 216 -208 284
-116 109 -326 251 -349 236 -13 -8 -2 -66 19 -98 9 -15 54 -50 98 -80 92 -60
222 -190 285 -282 50 -75 124 -222 140 -278 6 -22 18 -147 26 -278 8 -130 18
-250 21 -265 4 -15 22 -55 40 -89 55 -99 46 -106 -46 -36 -65 48 -140 140
-167 203 -23 55 -20 112 8 151 22 31 24 43 23 139 -2 121 -16 167 -90 295 -34
59 -76 109 -159 190 -62 61 -131 135 -154 166 -71 96 -151 136 -151 76 0 -38
50 -103 217 -279 156 -164 159 -168 201 -270 58 -137 60 -153 28 -233 -31 -77
-34 -155 -10 -255 29 -123 99 -203 260 -297 166 -97 205 -125 239 -172 53 -72
84 -197 85 -337 0 -161 -98 -294 -285 -383 -92 -44 -144 -95 -182 -178 -35
-75 -36 -163 -3 -198 29 -31 102 -66 197 -95 39 -12 74 -27 76 -34 3 -7 -1
-27 -9 -44 l-13 -33 -64 7 c-76 8 -140 -9 -135 -34 2 -9 27 -34 56 -56 105
-78 10 -75 -183 6 -71 30 -161 65 -200 77 -117 38 -135 78 -116 259 16 155 18
161 71 192 25 14 58 45 73 68 28 41 47 54 47 30 0 -7 -22 -51 -49 -98 -76
-132 -81 -178 -29 -310 33 -84 45 -98 89 -105 22 -4 52 -17 67 -30 31 -25 72
-41 72 -27 0 5 -17 22 -37 38 -55 42 -92 84 -114 129 -11 22 -27 52 -36 67
-24 38 -8 110 55 241 65 133 81 148 186 176 168 45 285 120 331 216 36 73 48
229 21 270 -9 14 -21 25 -26 25 -15 0 -30 -70 -30 -141 0 -74 -26 -135 -85
-204 -43 -50 -43 -44 -5 128 33 150 38 248 14 305 -37 90 -154 159 -154 92 0
-12 11 -31 25 -43 53 -47 72 -223 40 -362 -39 -164 -116 -245 -240 -253 -55
-4 -67 -1 -103 23 -69 45 -96 29 -122 -73 -10 -41 -16 -46 -73 -72 -34 -15
-70 -36 -79 -46 -9 -11 -28 -62 -42 -114 -69 -248 -177 -416 -335 -518 -34
-23 -122 -64 -194 -93 -73 -28 -141 -59 -152 -69 -11 -10 -44 -30 -73 -45 -47
-23 -61 -25 -110 -20 -32 4 -81 18 -110 31 -77 34 -107 37 -212 20 -83 -13
-104 -13 -162 -1 -126 26 -293 76 -341 103 -87 47 -227 205 -360 406 -28 44
-64 89 -79 99 -26 19 -26 19 -56 -2 -30 -21 -68 -27 -88 -13 -6 4 -19 22 -29
41 -10 19 -27 42 -38 52 -20 16 -20 17 -3 63 10 25 41 81 69 123 76 116 100
189 101 298 1 78 -3 98 -27 150 -15 32 -45 82 -66 110 -49 63 -61 87 -61 118
0 49 30 56 130 27 40 -11 50 -11 84 5 43 21 68 61 47 75 -8 4 -30 6 -50 3 -43
-6 -132 25 -188 66 -39 28 -54 55 -103 189 -24 64 -70 103 -82 70 -6 -16 38
-387 53 -449 6 -26 30 -78 55 -115 60 -93 68 -126 67 -284 0 -183 -9 -210 -77
-248 -93 -53 -146 -137 -153 -242 -4 -61 -2 -69 34 -128 59 -98 118 -156 178
-171 124 -31 126 -32 136 -58 5 -15 7 -40 3 -56 -8 -37 -80 -117 -106 -117
-24 0 -70 24 -88 45 -7 9 -46 31 -86 49 -40 19 -79 45 -89 59 -9 14 -21 56
-27 94 -13 88 -23 105 -102 182 -61 58 -66 67 -66 105 1 92 68 214 141 255 63
36 139 129 139 171 0 40 -127 -37 -223 -135 -94 -97 -170 -261 -153 -330 4
-14 40 -60 81 -101 72 -72 95 -110 80 -133 -12 -20 -39 -11 -133 47 -121 74
-152 90 -182 96 -46 9 -65 59 -65 166 0 128 29 222 106 342 125 194 151 405
79 648 -17 58 -34 125 -37 150 -3 25 -10 53 -15 64 -22 41 -28 -17 -28 -271 0
-144 -4 -264 -9 -267 -15 -10 -28 17 -35 70 -3 28 -19 93 -35 145 -69 221 -73
265 -40 412 11 50 31 153 45 227 32 179 44 217 120 387 36 79 78 185 94 235
36 110 96 224 205 388 117 175 184 252 274 312 42 29 96 67 120 86 102 78 248
134 406 158 55 8 147 23 205 34 148 27 144 27 361 29 162 1 208 -2 270 -18z
m-4092 -2166 c16 -8 73 -53 127 -101 117 -103 253 -201 462 -332 84 -54 204
-132 265 -175 62 -43 177 -122 257 -175 80 -52 179 -121 220 -152 41 -31 89
-64 105 -73 17 -8 63 -51 103 -95 59 -66 111 -107 290 -228 397 -271 536 -361
667 -434 72 -40 163 -94 203 -122 40 -27 92 -57 116 -68 44 -19 116 -75 116
-91 0 -17 -30 -9 -80 22 -28 17 -70 37 -94 44 -58 18 -89 34 -199 107 -51 33
-127 78 -170 99 -42 22 -94 54 -115 73 -20 18 -92 72 -159 119 -67 48 -150
111 -185 140 -72 60 -238 167 -443 284 -181 104 -526 335 -735 494 -91 68
-217 155 -280 193 -221 132 -415 287 -496 397 -20 28 -44 49 -54 49 -21 0 -34
15 -25 30 9 15 72 12 104 -5z m-159 -185 c95 -57 170 -116 170 -133 0 -7 -59
-60 -131 -117 -73 -58 -158 -134 -189 -169 l-58 -63 -7 42 c-11 68 -9 229 5
294 22 107 74 196 113 196 8 0 51 -22 97 -50z m351 -231 c46 -34 145 -110 219
-169 74 -59 180 -138 235 -176 55 -37 147 -105 205 -149 58 -45 186 -133 285
-196 227 -144 458 -305 650 -455 177 -138 597 -438 720 -515 47 -30 157 -101
243 -157 86 -57 193 -124 237 -149 44 -25 127 -80 185 -122 58 -43 138 -101
178 -130 107 -79 143 -133 168 -254 39 -187 139 -290 310 -317 103 -17 182 -4
346 57 54 19 104 33 113 29 11 -4 15 -21 15 -68 0 -77 -13 -127 -46 -175 -40
-59 -30 -124 24 -170 49 -41 28 -145 -40 -196 -115 -87 -213 -95 -398 -33 -63
21 -128 38 -145 39 l-30 1 0 175 c0 132 -5 196 -18 256 -26 119 -37 155 -46
155 -4 0 -16 -15 -26 -34 -18 -33 -18 -51 -6 -408 32 -967 33 -3355 1 -4687
-10 -408 -10 -414 -34 -467 -31 -68 -69 -104 -110 -104 -37 0 -119 37 -161 72
-16 14 -57 41 -90 60 -33 19 -91 55 -130 80 -38 25 -94 58 -124 74 -30 16 -83
55 -118 86 -35 32 -85 69 -112 83 -59 29 -431 278 -514 344 -32 25 -65 58 -73
73 -9 17 -50 48 -111 84 -54 32 -179 111 -278 177 -99 66 -199 128 -222 138
-73 31 -192 171 -213 249 -19 69 -91 164 -224 295 -161 158 -234 205 -317 205
-141 0 -412 -147 -483 -263 l-30 -48 18 -165 c10 -91 17 -166 15 -168 -2 -2
-33 -18 -69 -36 -213 -106 -471 -306 -523 -405 -16 -32 -22 -66 -26 -170 l-6
-130 -130 -27 c-143 -29 -245 -35 -309 -16 -56 17 -148 111 -208 214 -26 45
-55 87 -63 94 -9 7 -46 16 -83 19 -37 4 -77 12 -89 19 -29 16 -118 122 -142
170 -37 73 -71 251 -71 379 0 65 5 84 66 228 36 86 68 173 71 193 6 48 93 223
141 287 21 28 51 74 67 103 54 99 259 312 300 312 7 0 18 7 25 15 6 8 57 44
113 82 56 37 122 86 147 109 42 39 178 114 207 114 6 0 15 -10 18 -21 15 -45
6 -407 -15 -611 -22 -225 -22 -233 31 -299 31 -39 100 -79 137 -79 12 0 22 -6
22 -13 0 -20 -62 -106 -134 -186 -36 -41 -69 -86 -73 -100 -3 -14 -32 -85 -64
-158 -67 -151 -75 -186 -43 -191 16 -2 23 4 28 21 3 13 34 66 68 118 35 52 87
132 117 178 29 45 85 115 125 155 39 39 76 81 82 91 10 18 24 20 145 23 74 2
140 8 146 14 37 30 -6 89 -85 118 -31 12 -115 38 -187 57 -71 19 -150 46 -176
58 -64 33 -86 89 -54 139 12 19 18 74 25 242 5 121 14 235 19 254 19 67 31
258 42 639 12 419 1 1165 -26 1746 -8 171 -15 401 -15 511 l0 201 38 26 c20
14 64 41 96 59 32 18 62 40 67 48 4 8 12 60 17 115 7 63 18 118 33 150 18 42
20 55 12 88 -8 30 -7 50 8 98 21 67 15 98 -25 124 -34 22 -58 12 -85 -35 l-22
-40 -73 0 c-164 0 -282 48 -234 96 11 12 46 18 127 24 61 5 127 14 146 20 40
13 75 53 75 84 -1 37 -36 99 -98 173 -83 99 -109 146 -127 233 -32 151 -66
420 -76 600 -5 102 -14 214 -19 250 -5 36 -10 91 -10 123 l0 58 46 27 c124 74
177 115 274 214 58 58 110 107 116 107 6 1 48 -27 95 -60z m-1409 -379 c20 -6
72 -40 115 -76 114 -94 146 -108 275 -112 123 -5 250 10 301 34 34 16 37 16
61 0 33 -21 35 -64 3 -94 -13 -13 -57 -30 -103 -42 -45 -11 -112 -32 -150 -46
-133 -51 -200 -33 -327 85 -34 32 -84 74 -110 94 -44 33 -55 37 -110 37 -73 0
-152 -33 -235 -99 -64 -51 -88 -88 -103 -161 -16 -75 -56 -148 -148 -271 -121
-161 -293 -311 -322 -282 -4 4 -2 27 6 49 7 22 15 58 17 80 3 38 2 39 -42 53
-74 23 -90 30 -90 41 0 5 37 28 83 51 102 52 202 116 257 165 46 42 74 92 114
204 15 41 37 91 48 112 31 54 187 160 263 179 45 11 155 10 197 -1z m11508
-60 c0 -36 -51 -81 -110 -96 -83 -21 -173 -94 -154 -125 3 -6 37 -30 75 -55
38 -24 69 -50 69 -59 0 -20 -71 -38 -160 -39 -70 -1 -79 2 -130 34 -67 43
-130 98 -130 114 0 14 -46 59 -77 75 -50 26 -148 -2 -219 -62 -37 -31 -48 -69
-64 -215 -13 -116 -43 -244 -65 -279 -12 -18 -25 -23 -58 -23 -61 0 -115 -18
-128 -42 -8 -15 -13 -17 -19 -8 -9 15 -83 29 -161 29 -115 2 -149 22 -106 65
15 15 48 27 102 38 109 22 185 52 258 102 71 49 96 91 122 210 38 175 106 262
222 286 72 15 115 6 160 -33 35 -31 39 -32 122 -30 113 2 226 32 331 87 96 50
120 56 120 26z m-7609 -237 c67 -70 109 -121 109 -134 0 -5 -13 -9 -29 -9 -21
0 -32 6 -36 19 -3 11 -29 48 -56 83 -63 78 -74 98 -57 98 8 0 39 -26 69 -57z
m2432 -174 c7 -54 46 -133 72 -143 20 -7 19 -45 0 -53 -19 -7 -51 21 -72 60
-20 39 -45 165 -38 189 11 32 32 3 38 -53z m-3325 -156 c61 -48 127 -101 148
-118 30 -23 35 -31 22 -33 -15 -3 -239 163 -348 258 l-35 31 52 -25 c28 -14
101 -65 161 -113z m3720 -129 c36 -10 26 -31 -35 -72 -90 -60 -598 -360 -696
-410 -100 -51 -157 -108 -320 -314 -51 -64 -95 -117 -99 -117 -5 -1 -8 6 -8
14 0 30 -40 38 -170 33 -133 -6 -164 -15 -175 -48 -10 -31 5 -43 98 -79 l85
-33 42 22 c23 12 44 19 47 16 9 -8 -56 -103 -89 -131 -21 -18 -41 -25 -70 -25
-45 0 -40 -5 -172 155 -41 50 -136 158 -211 240 -76 83 -148 164 -162 182
l-25 32 21 29 c41 58 151 152 177 152 40 0 124 -40 124 -59 0 -9 -14 -77 -31
-151 -44 -192 -44 -190 -26 -190 31 0 57 44 98 167 22 68 51 135 63 148 25 28
94 43 101 23 3 -8 -6 -40 -19 -73 -35 -86 -53 -182 -38 -197 28 -28 86 75 103
186 6 34 18 69 28 79 19 19 227 86 269 87 15 0 52 -30 117 -96 53 -52 101 -94
108 -91 7 2 12 24 12 58 l0 54 55 3 c123 5 129 24 37 118 -69 71 -107 83 -142
44 -21 -23 -45 -26 -45 -7 0 20 33 47 153 126 111 72 127 78 217 71 41 -3 66
-16 133 -69 75 -59 167 -78 167 -33 0 9 -12 33 -26 54 -45 64 -18 84 126 97
115 11 151 12 178 5z m-3452 -65 c19 -11 34 -27 34 -35 0 -22 -14 -17 -50 21
-38 40 -33 45 16 14z m1210 -44 c129 -27 214 -77 214 -127 0 -28 -134 -91
-175 -82 -77 17 -295 162 -295 196 0 30 141 36 256 13z m1288 -24 c9 -14 -39
-66 -92 -99 -26 -16 -94 -45 -152 -63 -97 -30 -116 -33 -240 -33 l-135 -1 -77
37 c-141 67 -102 81 212 76 l235 -3 95 47 c91 45 143 58 154 39z m-2394 -26
c16 -19 0 -19 -26 0 -16 12 -16 14 -3 15 9 0 22 -7 29 -15z m2170 -21 c0 -8
-4 -14 -10 -14 -5 0 -10 9 -10 21 0 11 5 17 10 14 6 -3 10 -13 10 -21z m-720
-124 c0 -23 -48 -87 -94 -128 -46 -40 -89 -41 -94 -3 -3 18 10 38 51 80 30 31
57 64 60 73 5 14 11 15 41 6 23 -7 36 -18 36 -28z m-3959 -79 c10 -17 43 -42
78 -62 108 -57 122 -97 42 -119 -70 -18 -152 16 -177 75 -19 46 -18 64 6 103
24 39 31 40 51 3z m2837 5 c26 -13 79 -48 117 -78 39 -29 82 -61 98 -71 15
-10 27 -22 27 -27 0 -22 -39 -8 -91 33 -30 23 -92 66 -137 96 -76 49 -97 71
-72 71 6 0 32 -11 58 -24z m6336 -12 c43 -17 -15 -101 -90 -130 -90 -34 -83
27 11 98 53 41 55 41 79 32z m-5661 -216 c20 -10 37 -23 37 -28 0 -5 21 -21
48 -34 140 -71 362 -286 337 -326 -14 -22 -110 56 -193 158 -31 39 -154 129
-272 201 -67 40 -63 37 -55 50 8 13 46 5 98 -21z m-253 -32 c71 -35 367 -240
414 -287 40 -38 27 -48 -15 -11 -19 16 -44 32 -56 36 -12 4 -50 30 -85 58 -69
55 -220 147 -295 180 -56 24 -85 47 -77 60 8 12 37 3 114 -36z m5954 1 c26
-41 -47 -108 -142 -128 -63 -13 -85 -5 -90 30 -5 30 12 48 72 78 92 47 140 53
160 20z m24 -199 c22 -22 14 -77 -14 -103 -32 -30 -121 -49 -187 -41 -57 6
-77 20 -77 51 0 26 13 32 144 69 49 14 91 28 94 31 9 9 27 6 40 -7z m-8868
-129 c0 -32 -18 -57 -53 -76 -49 -26 -196 -24 -259 5 -113 50 -27 88 205 91
102 1 107 0 107 -20z m3801 -1335 c46 -9 136 -16 199 -17 96 -1 125 3 175 21
63 23 110 28 120 12 9 -15 -30 -1428 -41 -1465 -12 -43 -163 -110 -274 -121
-43 -5 -66 -1 -105 16 -27 12 -74 24 -103 27 -43 5 -53 10 -57 27 -5 22 -18
191 -36 461 -12 188 -18 1041 -6 1069 7 18 8 18 26 2 11 -10 57 -24 102 -32z
m5166 -1274 c-7 -76 -42 -150 -81 -169 -43 -20 -191 -25 -246 -9 -47 14 -57
30 -46 72 7 27 30 39 122 61 83 21 190 69 198 90 3 8 17 15 32 15 27 0 27 0
21 -60z m-4697 -835 l0 -546 -36 -32 c-20 -18 -55 -45 -78 -61 -39 -27 -44
-28 -134 -23 -84 4 -101 8 -163 41 -83 43 -120 46 -147 11 l-19 -24 -5 37 c-3
20 -2 159 3 307 4 149 8 314 8 368 1 117 4 119 100 89 94 -29 149 -34 227 -22
108 17 196 77 218 148 13 40 -19 35 -104 -14 -103 -60 -172 -69 -260 -34 -30
12 -82 32 -115 45 -70 27 -79 45 -70 145 8 83 19 98 51 67 31 -31 113 -57 179
-57 69 0 189 32 262 69 32 16 64 30 71 31 9 0 12 -115 12 -545z m4351 -307
c13 -18 62 -73 109 -123 102 -106 151 -177 218 -311 83 -167 132 -319 132
-408 0 -23 9 -87 20 -144 11 -56 23 -147 26 -202 7 -96 6 -102 -16 -125 -31
-33 -96 -52 -228 -66 -105 -11 -139 -21 -154 -43 -4 -6 -8 -59 -8 -118 0 -157
-38 -309 -105 -423 -37 -63 -178 -210 -232 -242 -49 -29 -121 -48 -210 -58
l-63 -7 0 84 c0 102 -12 146 -47 181 -51 48 -94 58 -291 68 -100 6 -194 14
-207 19 -48 18 -127 176 -128 255 0 28 14 68 47 133 110 218 120 269 91 447
-27 164 -17 205 61 264 63 48 232 131 265 131 26 0 81 25 229 108 105 57 277
117 296 101 34 -28 7 -202 -40 -252 -25 -27 -25 -27 -178 -27 -187 0 -227 -9
-385 -89 -122 -61 -170 -99 -160 -125 10 -25 136 -22 188 4 144 74 322 110
374 76 15 -10 25 -26 25 -41 0 -20 5 -25 26 -25 20 0 47 21 109 83 96 96 108
117 143 246 23 89 25 112 26 326 1 164 5 245 16 283 7 28 17 52 21 52 4 0 18
-15 30 -32z m-4356 -437 c3 -21 1 -162 -5 -312 -5 -151 -15 -456 -20 -680 -11
-483 -16 -539 -44 -582 -32 -48 -104 -68 -252 -70 l-121 -2 -37 33 c-40 35
-67 40 -86 18 -18 -22 13 -79 61 -112 32 -22 54 -28 113 -32 91 -6 194 11 265
44 101 45 106 28 20 -62 -77 -80 -123 -99 -217 -91 -37 3 -87 13 -112 22 -93
35 -119 40 -132 27 -18 -18 7 -59 61 -97 42 -29 46 -30 150 -29 120 2 220 23
265 57 61 46 60 46 53 -22 -5 -55 -10 -67 -46 -106 -25 -28 -41 -54 -41 -70 0
-21 6 -26 40 -31 31 -5 42 -12 46 -30 9 -37 -14 -91 -54 -125 -40 -33 -189
-108 -265 -133 -102 -34 -143 -17 -188 78 -35 73 -38 132 -9 169 27 33 26 43
-12 123 l-33 69 -1 730 c-1 792 8 1221 24 1237 8 8 30 3 74 -13 56 -21 79 -24
208 -24 137 0 148 2 200 27 77 37 87 36 95 -11z m-3468 -237 c43 -20 202 -178
274 -272 26 -35 60 -95 74 -133 15 -38 42 -91 61 -117 19 -26 47 -74 64 -107
34 -68 137 -192 194 -233 27 -19 55 -28 95 -32 49 -4 56 -8 59 -28 2 -12 -6
-37 -17 -56 -12 -18 -21 -41 -21 -51 0 -10 35 -54 78 -99 42 -45 90 -105 106
-135 27 -51 28 -58 23 -143 -7 -109 -41 -194 -82 -204 -33 -8 -58 14 -73 64
-26 88 -105 172 -146 156 -29 -11 -27 -42 4 -114 40 -92 53 -169 40 -236 -17
-83 -30 -89 -184 -89 -119 0 -138 3 -201 27 -39 14 -77 29 -86 31 -24 8 -54
77 -89 205 -46 171 -101 263 -178 300 -20 9 -50 37 -67 62 -17 25 -55 61 -84
80 -111 75 -219 264 -236 415 -3 33 -20 108 -36 166 -51 184 -59 321 -23 391
23 45 150 121 264 160 63 21 130 18 187 -8z m6326 -155 c104 -53 224 -129 259
-166 15 -15 39 -53 55 -83 24 -48 28 -67 28 -141 l0 -85 -72 -145 c-131 -262
-221 -378 -413 -527 -199 -155 -314 -264 -350 -332 -7 -14 -40 -60 -72 -102
-81 -107 -135 -133 -268 -133 -88 0 -101 3 -181 38 -47 21 -100 50 -118 65
-43 36 -78 137 -92 260 -15 138 -17 142 -73 170 -65 33 -83 31 -147 -12 -30
-20 -62 -36 -71 -36 -23 0 -82 52 -109 97 l-23 36 42 37 c47 42 161 104 209
115 18 3 42 15 55 24 30 24 110 51 152 51 31 0 34 -3 40 -37 3 -21 6 -51 6
-66 0 -31 20 -43 47 -29 57 31 218 221 303 357 69 111 303 335 326 312 8 -8
-3 -25 -84 -129 -66 -83 -77 -105 -114 -213 -73 -217 -95 -256 -216 -375 -59
-58 -124 -131 -145 -162 -51 -77 -87 -178 -94 -260 l-6 -68 36 -15 c91 -38
117 -13 127 122 8 120 17 139 121 250 97 104 182 229 216 318 14 36 29 65 33
65 5 0 18 30 31 68 40 122 61 150 272 368 210 217 245 265 217 299 -30 37 -85
14 -189 -79 -35 -32 -65 -55 -68 -52 -15 14 204 236 232 236 9 0 52 -19 98
-41z m-7217 -756 c0 -38 2 -99 5 -138 3 -57 0 -75 -15 -98 -29 -43 -119 -84
-147 -66 -17 10 -16 144 2 198 11 31 132 171 148 171 4 0 7 -30 7 -67z m1964
-150 c54 -29 186 -116 208 -136 29 -27 28 -53 -3 -73 -31 -20 -58 -12 -108 32
-20 19 -47 34 -60 34 -33 0 -83 34 -117 81 -34 48 -37 64 -12 78 19 11 54 5
92 -16z m-1648 -79 c40 -8 88 -12 106 -9 39 7 42 -5 5 -27 -40 -23 -132 -38
-235 -38 -101 0 -129 9 -121 40 13 49 110 63 245 34z m7591 -283 c18 -18 -1
-40 -40 -46 -21 -3 -72 -19 -113 -35 -41 -16 -102 -34 -134 -40 -66 -11 -187
-12 -226 -1 -37 10 -32 42 10 63 39 19 185 53 288 67 78 11 201 6 215 -8z"/>
<path d="M6080 11331 c-39 -12 -118 -54 -241 -129 -63 -37 -150 -88 -194 -112
-234 -126 -249 -154 -38 -70 184 74 260 116 295 164 16 23 42 49 58 59 35 22
148 47 217 47 55 0 72 12 53 35 -13 16 -105 19 -150 6z"/>
<path d="M6430 11275 c-17 -20 -9 -26 65 -55 81 -32 218 -100 212 -106 -3 -3
-33 3 -68 13 -49 13 -103 17 -234 18 -189 0 -261 -12 -445 -71 -239 -79 -388
-173 -592 -374 -115 -114 -144 -158 -120 -182 19 -19 58 7 104 70 57 78 78 94
241 187 153 86 293 146 467 198 262 80 367 85 588 33 78 -19 167 -38 197 -41
79 -10 91 -28 88 -128 -3 -89 12 -127 48 -127 25 0 51 55 74 157 22 96 18 125
-18 134 -15 4 -54 32 -86 61 -109 102 -238 172 -380 209 -90 23 -124 24 -141
4z"/>
<path d="M7247 10953 c-38 -37 66 -354 139 -427 37 -36 90 -59 120 -52 36 9
29 32 -18 58 -51 29 -83 84 -142 244 -60 167 -78 199 -99 177z"/>
<path d="M6515 10921 c-82 -25 -162 -60 -177 -79 -14 -17 -25 -17 147 8 86 13
147 5 203 -27 34 -20 45 -23 57 -13 15 13 20 56 9 85 -18 46 -130 58 -239 26z"/>
<path d="M7135 10888 c-22 -69 -24 -108 -4 -108 13 0 39 63 39 95 0 26 -27 36
-35 13z"/>
<path d="M5882 10784 c-174 -87 -277 -155 -380 -252 -36 -33 -42 -62 -14 -62
26 0 103 53 129 87 12 18 38 34 64 42 24 7 109 46 189 87 157 80 248 148 237
177 -3 9 -14 16 -24 15 -10 0 -101 -43 -201 -94z"/>
<path d="M5091 10833 c-130 -122 -286 -361 -341 -522 -23 -68 -19 -101 10
-101 24 0 55 39 74 96 9 24 23 64 32 88 8 25 38 75 65 112 27 37 68 100 90
140 22 41 58 97 80 126 21 29 39 58 39 65 0 24 -20 23 -49 -4z"/>
<path d="M7097 10723 c-10 -10 -8 -69 4 -121 6 -26 34 -94 61 -151 60 -125
145 -221 196 -221 16 0 32 3 35 7 4 3 -17 31 -46 62 -77 81 -123 168 -201 384
-16 43 -33 57 -49 40z"/>
<path d="M6605 10665 c-183 -111 -343 -288 -406 -449 -94 -243 -87 -600 13
-670 33 -23 72 -20 106 9 17 14 34 25 38 25 5 0 27 -14 48 -30 82 -62 117 -20
51 62 -83 102 -125 238 -125 405 0 202 55 313 260 529 88 92 115 128 105 144
-10 17 -28 12 -90 -25z"/>
<path d="M5690 10551 c-59 -32 -182 -143 -255 -232 -38 -46 -90 -106 -116
-132 -78 -81 -110 -151 -122 -277 -15 -154 0 -309 37 -383 38 -75 125 -187
166 -215 46 -31 113 -28 118 5 3 19 -6 27 -53 49 -31 15 -63 37 -71 49 -53 81
-30 185 30 140 100 -74 284 -155 359 -158 38 -2 42 0 42 22 0 27 1 27 -123 80
-146 62 -182 89 -231 175 -23 41 -52 102 -63 136 l-21 62 21 128 c11 71 28
144 38 162 34 67 125 177 214 259 88 80 126 129 113 143 -11 11 -47 5 -83 -13z"/>
<path d="M6951 10516 c-7 -8 -18 -45 -25 -83 -11 -59 -13 -64 -20 -40 -4 16
-18 40 -31 53 -21 21 -28 23 -46 13 -25 -13 -76 -120 -120 -251 -30 -88 -32
-104 -39 -301 -4 -125 -12 -213 -18 -219 -15 -15 -68 71 -93 154 -24 79 -47
105 -78 88 -16 -8 -21 -20 -21 -48 1 -75 79 -250 137 -304 l21 -20 70 37 c75
39 81 48 83 125 1 73 32 205 48 205 7 0 32 -32 55 -72 82 -144 220 -285 337
-344 73 -37 91 -64 120 -186 32 -137 72 -176 118 -117 l20 26 27 -21 c15 -12
33 -21 40 -21 23 0 17 79 -17 220 -35 149 -48 171 -179 315 -91 100 -189 233
-228 311 -11 22 -31 72 -43 110 -12 38 -30 86 -41 108 -12 23 -23 76 -29 135
-14 145 -20 161 -48 127z m14 -358 c14 -29 25 -64 25 -78 0 -30 63 -148 125
-234 24 -34 89 -113 145 -176 55 -62 98 -115 96 -117 -24 -24 -294 192 -348
277 -35 55 -44 88 -63 231 -23 170 -20 183 20 97z"/>
<path d="M5877 10458 c-38 -50 -103 -186 -126 -263 -47 -156 -45 -302 6 -379
20 -31 27 -36 34 -24 4 8 11 86 14 174 8 200 18 250 67 345 61 115 64 226 5
147z"/>
<path d="M7594 10176 c-3 -8 2 -38 10 -67 23 -75 34 -226 46 -594 l10 -319
-26 -109 -26 -109 22 -56 c68 -175 70 -189 17 -194 -35 -3 -49 -31 -22 -42 44
-16 209 53 247 105 21 28 58 216 58 293 -1 77 -53 176 -94 176 -24 0 -26 -27
-10 -112 23 -119 22 -178 -2 -219 -28 -47 -64 -67 -98 -51 -25 11 -26 15 -26
94 0 84 7 121 34 194 13 36 13 49 1 105 -39 177 -40 193 -20 276 16 62 20 111
19 238 -2 228 -33 359 -95 390 -35 18 -38 18 -45 1z"/>
<path d="M4716 9879 c-47 -113 -71 -276 -71 -489 l0 -185 52 -125 c77 -187 91
-292 43 -335 -14 -13 -28 -16 -54 -11 -29 6 -40 2 -69 -23 -44 -40 -125 -160
-149 -224 -11 -28 -26 -60 -34 -71 -17 -24 -19 -133 -4 -187 8 -27 19 -40 41
-50 61 -25 85 25 53 109 -14 38 -15 52 -5 97 13 58 68 157 117 211 29 31 37
34 66 29 67 -13 133 64 159 185 16 74 2 154 -52 295 l-42 110 -7 338 c-7 351
-13 400 -44 326z"/>
<path d="M5574 9855 c-19 -76 27 -166 137 -269 116 -110 211 -146 287 -107 39
20 44 20 78 6 65 -27 104 -15 104 31 0 26 -13 38 -62 53 -47 15 -83 58 -121
141 -46 101 -63 122 -101 118 -43 -4 -44 -30 -7 -117 17 -38 31 -78 31 -89 0
-11 9 -31 20 -45 25 -32 25 -37 -2 -37 -68 0 -197 117 -262 235 -60 109 -89
132 -102 80z"/>
<path d="M6743 9540 c-11 -5 -29 -21 -40 -36 -27 -41 -94 -105 -141 -136 -44
-29 -53 -56 -27 -78 21 -18 61 -5 128 42 57 39 63 41 163 48 114 8 144 22 144
67 0 63 -150 124 -227 93z"/>
<path d="M6855 9309 c-80 -12 -201 -54 -250 -88 -69 -47 -105 -122 -72 -149 7
-6 32 -15 56 -21 26 -6 57 -23 78 -43 28 -27 41 -33 76 -32 49 2 129 31 205
74 38 22 57 41 68 68 35 82 38 86 81 97 52 13 59 20 42 41 -38 47 -169 71
-284 53z"/>
<path d="M5619 9280 c-63 -41 -169 -154 -169 -179 0 -33 46 -26 115 16 59 37
62 37 195 44 141 8 186 18 196 44 8 21 6 23 -57 39 -30 8 -79 26 -109 40 -73
34 -115 33 -171 -4z"/>
<path d="M5624 9036 c-59 -63 -174 -229 -174 -252 0 -25 35 -15 70 21 19 19
38 35 43 35 5 0 22 -11 39 -25 41 -34 128 -34 235 0 97 31 140 57 154 93 12
29 4 131 -11 146 -8 8 -41 12 -233 32 l-68 7 -55 -57z"/>
<path d="M6332 8414 c-28 -19 -30 -54 -2 -54 11 0 29 9 41 21 16 16 18 23 8
35 -15 18 -19 18 -47 -2z"/>
<path d="M6498 8419 c-35 -20 -21 -39 27 -39 49 0 62 20 26 40 -24 12 -31 12
-53 -1z"/>
<path d="M6509 8211 c-121 -26 -226 -61 -255 -84 -18 -13 -24 -27 -22 -46 3
-23 8 -26 46 -29 34 -3 63 6 141 42 146 69 243 73 178 9 -17 -17 -43 -28 -78
-34 -56 -9 -104 -37 -104 -60 0 -10 15 -15 49 -17 38 -3 56 2 87 23 22 14 54
28 72 32 47 9 81 28 111 63 78 93 -33 143 -225 101z"/>
<path d="M6525 7905 c-28 -27 -33 -63 -10 -71 36 -14 135 42 135 77 0 16 -7
19 -50 19 -41 0 -56 -5 -75 -25z"/>
<path d="M6117 5893 c-4 -3 -7 -34 -7 -68 0 -47 4 -66 18 -78 24 -22 71 -22
101 -1 23 16 24 16 57 -20 18 -20 38 -36 43 -36 32 0 40 119 11 155 -21 25
-59 18 -92 -17 -24 -26 -31 -29 -39 -17 -5 8 -9 19 -9 25 0 15 -50 64 -65 64
-6 0 -15 -3 -18 -7z"/>
<path d="M6470 5844 c-23 -60 -1 -134 40 -134 42 0 50 81 13 136 -20 31 -41
30 -53 -2z"/>
<path d="M2244 3187 c-36 -31 -29 -56 37 -138 58 -72 79 -110 104 -189 20 -61
82 -191 123 -257 30 -47 69 -69 107 -59 21 5 25 11 20 29 -36 129 -234 527
-301 607 -31 36 -54 38 -90 7z"/>
<path d="M1963 2278 c-29 -14 -37 -38 -18 -57 13 -14 20 -14 57 -1 54 19 61
44 17 59 -18 6 -32 11 -33 10 -1 0 -11 -5 -23 -11z"/>
<path d="M1846 2117 c-11 -8 -17 -23 -14 -38 3 -22 8 -24 62 -27 32 -2 63 1
68 6 14 14 -2 41 -33 57 -35 18 -60 19 -83 2z"/>
<path d="M1696 1899 c-37 -29 -33 -53 12 -75 45 -21 174 -26 193 -7 28 28 -80
102 -147 103 -17 0 -43 -9 -58 -21z"/>
<path d="M2273 1828 c-99 -73 -237 -195 -282 -252 -28 -36 -56 -66 -62 -66
-17 0 -82 -149 -87 -201 -4 -45 -2 -51 31 -84 68 -68 92 -42 89 95 -3 96 -2
98 30 140 30 40 131 134 301 283 48 42 67 65 67 83 0 20 -5 24 -28 24 -15 0
-42 -10 -59 -22z"/>
<path d="M1602 1598 c-7 -7 -12 -22 -12 -34 0 -42 51 -75 151 -99 67 -15 89
-9 89 25 0 67 -182 154 -228 108z"/>
<path d="M1532 1317 c-25 -29 31 -74 120 -96 69 -16 102 5 77 51 -24 45 -170
78 -197 45z"/>
<path d="M6157 5283 c-4 -3 -7 -32 -7 -63 0 -63 33 -143 62 -148 42 -8 47 121
8 186 -18 30 -47 41 -63 25z"/>
<path d="M6498 5244 c-39 -20 -52 -49 -33 -68 25 -24 54 -29 80 -12 29 19 39
49 25 76 -13 23 -34 25 -72 4z"/>
<path d="M6281 5241 c-20 -13 -9 -101 15 -118 26 -19 68 -13 72 10 6 30 -7 85
-24 102 -17 17 -42 19 -63 6z"/>
<path d="M6190 4133 c0 -91 180 -140 297 -80 87 45 124 124 44 96 -33 -12
-237 -7 -308 7 -31 6 -33 5 -33 -23z"/>
<path d="M6127 2998 c-7 -22 21 -65 58 -88 120 -74 439 -17 385 69 -5 9 -22 8
-65 -4 -85 -22 -154 -19 -237 10 -78 27 -134 32 -141 13z"/>
<path d="M10893 2069 c-116 -27 -144 -159 -33 -159 33 0 44 6 85 52 37 41 45
57 43 82 -3 36 -24 41 -95 25z"/>
<path d="M11117 1949 c-50 -33 -122 -109 -140 -147 -32 -69 72 -34 147 49 44
49 66 103 49 120 -6 6 -28 -3 -56 -22z"/>
<path d="M10187 1703 c-4 -3 -7 -12 -7 -20 0 -21 130 -163 205 -223 165 -134
192 -170 215 -288 16 -81 8 -171 -25 -267 -30 -85 -29 -104 1 -116 58 -21 120
55 160 194 10 33 24 65 31 73 11 11 11 18 2 35 -6 12 -26 67 -45 122 -53 158
-98 214 -286 360 -144 112 -227 155 -251 130z"/>
<path d="M6400 488 c-45 -75 -33 -138 24 -124 65 16 88 91 43 134 -31 30 -44
28 -67 -10z"/>
<path d="M6213 495 c-46 -32 -54 -117 -13 -130 27 -9 100 33 100 57 0 23 -27
66 -50 78 -11 6 -24 4 -37 -5z"/>
<path d="M3257 2193 c-4 -3 -7 -16 -7 -28 0 -24 67 -167 110 -235 16 -25 43
-80 60 -124 17 -43 45 -99 63 -125 31 -45 32 -48 37 -192 5 -140 6 -146 32
-178 15 -18 50 -76 78 -130 49 -95 122 -184 162 -197 27 -8 88 15 88 33 0 9
-31 49 -70 89 -38 41 -70 80 -70 87 0 7 -16 45 -35 85 -49 104 -65 156 -76
252 -12 107 -22 137 -74 230 -23 41 -78 142 -121 224 -95 180 -146 240 -177
209z"/>
<path d="M3375 1520 c-11 -17 5 -32 21 -19 8 6 14 15 14 20 0 12 -27 11 -35
-1z"/>
<path d="M3246 1414 c-20 -19 -20 -38 -1 -54 32 -27 94 16 79 54 -8 21 -58 21
-78 0z"/>
<path d="M3127 1299 c-25 -14 -21 -29 8 -29 15 0 25 6 25 14 0 21 -12 26 -33
15z"/>
<path d="M9107 1498 c-52 -70 -57 -108 -12 -108 54 0 106 87 75 125 -19 23
-37 18 -63 -17z"/>
<path d="M9142 1304 c-45 -31 -51 -93 -11 -114 32 -18 69 28 69 85 0 50 -16
59 -58 29z"/>
<path d="M9175 1109 c-28 -34 -28 -47 -2 -63 38 -24 107 35 91 78 -11 28 -59
20 -89 -15z"/>
<path d="M10459 8339 c-11 -11 -18 -26 -16 -32 2 -7 51 -28 108 -48 107 -36
178 -68 309 -139 93 -49 131 -58 165 -36 34 22 34 63 0 76 -14 5 -99 44 -189
85 -260 120 -333 138 -377 94z"/>
<path d="M10760 3360 c-20 -22 -74 -109 -120 -192 -46 -84 -121 -214 -168
-288 -149 -235 -193 -355 -132 -355 32 0 63 46 205 305 59 107 141 253 182
323 99 169 118 214 103 233 -19 22 -30 17 -70 -26z"/>
</g>
</svg>
