<svg fill="#000000" xmlns="http://www.w3.org/2000/svg"  viewBox="0 0 64 64" width="64px" height="64px"><path d="M 29.996094 2 C 29.443094 2 28.996094 2.448 28.996094 3 L 28.996094 4.5214844 C 28.701094 4.6254844 28.412859 4.7468594 28.130859 4.8808594 L 27.054688 3.8046875 C 26.663688 3.4136875 26.031625 3.4136875 25.640625 3.8046875 L 22.806641 6.6386719 C 22.415641 7.0296719 22.415641 7.6617344 22.806641 8.0527344 L 23.880859 9.1269531 C 23.744859 9.4099531 23.624531 9.7000938 23.519531 9.9960938 L 22 9.9960938 C 21.447 9.9960938 21 10.444094 21 10.996094 L 21 15.003906 C 21 15.555906 21.447 16.003906 22 16.003906 L 23.519531 16.003906 C 23.624531 16.299906 23.746859 16.589094 23.880859 16.871094 L 22.804688 17.947266 C 22.616688 18.135266 22.511719 18.389297 22.511719 18.654297 C 22.511719 18.919297 22.616688 19.174328 22.804688 19.361328 L 25.638672 22.195312 C 25.826672 22.383312 26.079703 22.488281 26.345703 22.488281 C 26.611703 22.488281 26.865734 22.383312 27.052734 22.195312 L 28.128906 21.119141 C 28.410906 21.253141 28.701094 21.372563 28.996094 21.476562 L 28.996094 23 C 28.996094 23.552 29.443094 24 29.996094 24 L 34.003906 24 C 34.556906 24 35.003906 23.552 35.003906 23 L 35.003906 21.474609 C 35.298906 21.370609 35.586187 21.251188 35.867188 21.117188 L 36.947266 22.195312 C 37.322266 22.570312 37.986328 22.570312 38.361328 22.195312 L 41.195312 19.361328 C 41.383313 19.173328 41.488281 18.919297 41.488281 18.654297 C 41.488281 18.389297 41.383313 18.134266 41.195312 17.947266 L 40.115234 16.867188 C 40.249234 16.586188 40.368656 16.299859 40.472656 16.005859 L 42 16.005859 C 42.553 16.005859 43 15.557859 43 15.005859 L 43 10.996094 C 43 10.444094 42.553 9.9960938 42 9.9960938 L 40.472656 9.9960938 C 40.368656 9.7030938 40.248234 9.4157656 40.115234 9.1347656 L 41.195312 8.0527344 C 41.586312 7.6617344 41.586312 7.0296719 41.195312 6.6386719 L 38.361328 3.8046875 C 37.970328 3.4136875 37.338266 3.4136875 36.947266 3.8046875 L 35.869141 4.8847656 C 35.588141 4.7507656 35.300859 4.6303906 35.005859 4.5253906 L 35.005859 3 C 35.005859 2.448 34.558859 2 34.005859 2 L 29.996094 2 z M 30.996094 4 L 33.005859 4 L 33.005859 5.2636719 C 33.005859 5.7196719 33.312906 6.1184219 33.753906 6.2324219 C 34.385906 6.3964219 34.987922 6.6456094 35.544922 6.9746094 C 35.937922 7.2066094 36.439719 7.1433125 36.761719 6.8203125 L 37.65625 5.9257812 L 39.076172 7.3457031 L 38.179688 8.2421875 C 37.857687 8.5641875 37.794391 9.0620781 38.025391 9.4550781 C 38.355391 10.015078 38.604625 10.618094 38.765625 11.246094 C 38.879625 11.688094 39.278375 11.996094 39.734375 11.996094 L 41 11.996094 L 41 14.005859 L 39.732422 14.005859 C 39.276422 14.005859 38.878672 14.313859 38.763672 14.755859 C 38.601672 15.385859 38.351437 15.987922 38.023438 16.544922 C 37.792437 16.937922 37.855734 17.437766 38.177734 17.759766 L 39.074219 18.654297 L 37.654297 20.074219 L 36.759766 19.179688 C 36.437766 18.856687 35.937922 18.794391 35.544922 19.025391 C 34.987922 19.354391 34.385906 19.605531 33.753906 19.769531 C 33.312906 19.883531 33.003906 20.280328 33.003906 20.736328 L 33.003906 22 L 30.996094 22 L 30.996094 20.738281 C 30.996094 20.282281 30.687094 19.883531 30.246094 19.769531 C 29.614094 19.606531 29.010172 19.358297 28.451172 19.029297 C 28.059172 18.798297 27.558328 18.861594 27.236328 19.183594 L 26.345703 20.074219 L 24.925781 18.654297 L 25.816406 17.765625 C 26.138406 17.443625 26.202703 16.943781 25.970703 16.550781 C 25.641703 15.992781 25.390563 15.388859 25.226562 14.755859 C 25.112562 14.314859 24.713812 14.005859 24.257812 14.005859 L 23 14.005859 L 23 11.996094 L 24.259766 11.996094 C 24.715766 11.996094 25.112562 11.687094 25.226562 11.246094 C 25.390563 10.613094 25.641703 10.009172 25.970703 9.4511719 C 26.201703 9.0581719 26.138406 8.5583281 25.816406 8.2363281 L 24.925781 7.3457031 L 26.345703 5.9257812 L 27.238281 6.8183594 C 27.560281 7.1413594 28.061125 7.2056563 28.453125 6.9726562 C 29.012125 6.6436563 29.614094 6.3934687 30.246094 6.2304688 C 30.687094 6.1164688 30.996094 5.7196719 30.996094 5.2636719 L 30.996094 4 z M 32 8 C 29.243 8 27 10.243 27 13 C 27 15.757 29.243 18 32 18 C 34.757 18 37 15.757 37 13 C 37 10.243 34.757 8 32 8 z M 32 10 C 33.654 10 35 11.346 35 13 C 35 14.654 33.654 16 32 16 C 30.346 16 29 14.654 29 13 C 29 11.346 30.346 10 32 10 z M 13 14 L 13 16 L 15 16 L 15 14 L 13 14 z M 17 14 L 17 16 L 19 16 L 19 14 L 17 14 z M 45 14 L 45 16 L 47 16 L 47 14 L 45 14 z M 49 14 L 49 16 L 51 16 L 51 14 L 49 14 z M 13 18 L 13 20 L 15 20 L 15 18 L 13 18 z M 49 18 L 49 20 L 51 20 L 51 18 L 49 18 z M 13 22 L 13 24 L 15 24 L 15 22 L 13 22 z M 49 22 L 49 24 L 51 24 L 51 22 L 49 22 z M 13 26 L 13 28 L 15 28 L 15 26 L 13 26 z M 31 26 L 31 28 L 33 28 L 33 26 L 31 26 z M 49 26 L 49 28 L 51 28 L 51 26 L 49 26 z M 3 30 C 2.447 30 2 30.448 2 31 L 2 61 C 2 61.552 2.447 62 3 62 L 61 62 C 61.553 62 62 61.552 62 61 L 62 31 C 62 30.448 61.553 30 61 30 L 3 30 z M 4 32 L 60 32 L 60 60 L 58 60 L 58 50 C 58 47.691 56.417109 45.761453 54.287109 45.189453 C 55.344109 44.107453 56 42.629 56 41 C 56 40.881 55.998234 40.763219 55.990234 40.699219 C 55.829234 37.502219 53.198 35 50 35 C 46.802 35 44.171625 37.503484 44.015625 40.646484 C 44.002625 40.764484 44 40.881 44 41 C 44 42.629 44.655891 44.107453 45.712891 45.189453 C 43.582891 45.761453 42 47.691 42 50 L 42 60 L 40 60 L 40 50 C 40 47.691 38.417109 45.761453 36.287109 45.189453 C 37.344109 44.107453 38 42.629 38 41 C 38 40.881 37.998234 40.763219 37.990234 40.699219 C 37.829234 37.502219 35.198 35 32 35 C 28.802 35 26.171625 37.503484 26.015625 40.646484 C 26.002625 40.764484 26 40.881 26 41 C 26 42.629 26.655891 44.107453 27.712891 45.189453 C 25.582891 45.761453 24 47.691 24 50 L 24 60 L 22 60 L 22 50 C 22 47.691 20.417109 45.761453 18.287109 45.189453 C 19.344109 44.107453 20 42.629 20 41 C 20 40.881 19.998234 40.763219 19.990234 40.699219 C 19.829234 37.502219 17.198 35 14 35 C 10.802 35 8.171625 37.503484 8.015625 40.646484 C 8.002625 40.764484 8 40.881 8 41 C 8 42.629 8.6558906 44.107453 9.7128906 45.189453 C 7.5828906 45.761453 6 47.691 6 50 L 6 60 L 4 60 L 4 32 z M 14 37 C 15.408 37 16.639516 37.735375 17.353516 38.859375 C 16.340516 38.306375 15.193 38 14 38 C 12.802 38 11.649766 38.309188 10.634766 38.867188 C 11.344766 37.746187 12.583 37 14 37 z M 32 37 C 33.408 37 34.639516 37.735375 35.353516 38.859375 C 34.340516 38.306375 33.193 38 32 38 C 30.802 38 29.649766 38.309188 28.634766 38.867188 C 29.344766 37.746187 30.583 37 32 37 z M 50 37 C 51.408 37 52.639516 37.735375 53.353516 38.859375 C 52.340516 38.306375 51.193 38 50 38 C 48.802 38 47.649766 38.309188 46.634766 38.867188 C 47.344766 37.746187 48.583 37 50 37 z M 14 40 C 15.53 40 16.955531 40.701766 17.894531 41.884766 C 17.489531 43.664766 15.901 45 14 45 C 12.099 45 10.510469 43.664766 10.105469 41.884766 C 11.044469 40.701766 12.47 40 14 40 z M 32 40 C 33.53 40 34.955531 40.701766 35.894531 41.884766 C 35.489531 43.664766 33.901 45 32 45 C 30.099 45 28.510469 43.664766 28.105469 41.884766 C 29.044469 40.701766 30.47 40 32 40 z M 50 40 C 51.53 40 52.955531 40.701766 53.894531 41.884766 C 53.489531 43.664766 51.901 45 50 45 C 48.099 45 46.510469 43.664766 46.105469 41.884766 C 47.044469 40.701766 48.47 40 50 40 z M 11 47 L 12.720703 47 L 11.03125 53.757812 C 10.96325 54.030813 11.012922 54.320688 11.169922 54.554688 L 13.169922 57.554688 C 13.354922 57.833688 13.666 58 14 58 C 14.334 58 14.646031 57.832687 14.832031 57.554688 L 16.832031 54.554688 C 16.988031 54.320687 17.038703 54.030812 16.970703 53.757812 L 15.279297 47 L 17 47 C 18.654 47 20 48.346 20 50 L 20 60 L 8 60 L 8 50 C 8 48.346 9.346 47 11 47 z M 29 47 L 30.720703 47 L 29.03125 53.757812 C 28.96325 54.030813 29.012922 54.320688 29.169922 54.554688 L 31.169922 57.554688 C 31.354922 57.833688 31.666 58 32 58 C 32.334 58 32.646031 57.832687 32.832031 57.554688 L 34.832031 54.554688 C 34.988031 54.320687 35.038703 54.030812 34.970703 53.757812 L 33.279297 47 L 35 47 C 36.654 47 38 48.346 38 50 L 38 60 L 26 60 L 26 50 C 26 48.346 27.346 47 29 47 z M 47 47 L 48.720703 47 L 47.03125 53.757812 C 46.96325 54.030813 47.012922 54.320688 47.169922 54.554688 L 49.169922 57.554688 C 49.354922 57.833688 49.666 58 50 58 C 50.334 58 50.646031 57.832687 50.832031 57.554688 L 52.832031 54.554688 C 52.988031 54.320687 53.038703 54.030812 52.970703 53.757812 L 51.279297 47 L 53 47 C 54.654 47 56 48.346 56 50 L 56 60 L 44 60 L 44 50 C 44 48.346 45.346 47 47 47 z M 14 50.123047 L 14.923828 53.8125 L 14 55.197266 L 13.076172 53.8125 L 14 50.123047 z M 32 50.123047 L 32.923828 53.8125 L 32 55.197266 L 31.076172 53.8125 L 32 50.123047 z M 50 50.123047 L 50.923828 53.8125 L 50 55.197266 L 49.076172 53.8125 L 50 50.123047 z"/></svg>