<svg fill="#000000" xmlns="http://www.w3.org/2000/svg"  viewBox="0 0 128 128" width="64px" height="64px"><path d="M 64 7 C 62.3 7 61 8.3 61 10 L 61 28 C 61 29.7 62.3 31 64 31 C 65.7 31 67 29.7 67 28 L 67 10 C 67 8.3 65.7 7 64 7 z M 90.199219 12.730469 C 89.017969 12.707031 87.95 13.399609 87.5 14.599609 L 81.400391 29.400391 C 80.800391 30.900391 81.5 32.700781 83 33.300781 C 83.4 33.500781 83.799609 33.5 84.099609 33.5 C 85.299609 33.5 86.400391 32.799609 86.900391 31.599609 L 93 16.900391 C 93.6 15.400391 92.900391 13.6 91.400391 13 C 91.000391 12.825 90.592969 12.738281 90.199219 12.730469 z M 37.857422 12.845703 C 37.468359 12.844141 37.074219 12.924609 36.699219 13.099609 C 35.199219 13.699609 34.399609 15.5 35.099609 17 L 41.199219 31.800781 C 41.699219 33.000781 42.8 33.699219 44 33.699219 C 44.4 33.699219 44.799609 33.6 45.099609 33.5 C 46.599609 32.9 47.399219 31.099609 46.699219 29.599609 L 40.599609 14.800781 C 40.149609 13.600781 39.024609 12.850391 37.857422 12.845703 z M 108.96289 31 C 108.20039 31 107.45039 31.300391 106.90039 31.900391 L 101.59961 37.300781 C 100.39961 38.500781 100.49961 40.4 101.59961 41.5 C 102.19961 42.1 102.89922 42.400391 103.69922 42.400391 C 104.49922 42.400391 105.30078 42.1 105.80078 41.5 L 111.09961 36.099609 C 112.29961 34.899609 112.19961 33.000391 111.09961 31.900391 C 110.49961 31.300391 109.72539 31 108.96289 31 z M 17.863281 31.037109 C 17.100781 31.074609 16.350781 31.4 15.800781 32 C 14.700781 33.2 14.8 35.099219 16 36.199219 L 22.099609 41.699219 C 22.699609 42.199219 23.399609 42.5 24.099609 42.5 C 24.899609 42.5 25.700781 42.2 26.300781 41.5 C 27.400781 40.3 27.299609 38.400781 26.099609 37.300781 L 20 31.800781 C 19.4 31.250781 18.625781 30.999609 17.863281 31.037109 z M 64 40 C 39.9 40 15.300391 56.599219 1.4003906 82.199219 C 0.60039063 83.599219 1.0996094 85.500781 2.5996094 86.300781 C 3.9996094 87.000781 5.7996094 86.499609 6.5996094 85.099609 C 19.399609 61.699609 42.4 46 64 46 C 85.6 46 108.60039 61.699609 121.40039 85.099609 C 121.90039 86.099609 123 86.699219 124 86.699219 C 124.5 86.699219 125.00039 86.600781 125.40039 86.300781 C 126.90039 85.500781 127.39961 83.699219 126.59961 82.199219 C 112.69961 56.599219 88.1 40 64 40 z M 64 61 C 54.1 61 46 69.1 46 79 C 46 88.9 54.1 97 64 97 C 73.9 97 82 88.9 82 79 C 82 69.1 73.9 61 64 61 z M 64 67 C 70.6 67 76 72.4 76 79 C 76 85.6 70.6 91 64 91 C 57.4 91 52 85.6 52 79 C 52 72.4 57.4 67 64 67 z M 19.246094 80.632812 C 18.667773 80.583008 18.0625 80.7 17.5 81 C 16 81.8 15.500781 83.599609 16.300781 85.099609 C 27.800781 106.19961 45.200391 118.40039 63.900391 118.40039 C 82.600391 118.40039 100 106.29961 111.5 85.099609 C 112.3 83.599609 111.80078 81.8 110.30078 81 C 108.80078 80.2 106.99922 80.699219 106.19922 82.199219 C 95.699219 101.39922 80.300781 112.30078 63.800781 112.30078 C 47.300781 112.30078 32.099609 101.29922 21.599609 82.199219 C 21.099609 81.261719 20.209961 80.71582 19.246094 80.632812 z"/></svg>